<svg xmlns="http://www.w3.org/2000/svg" version="1.1" viewBox="267.5 463.68 770.5 393.34"><path d="M 575.250 641.499 L 573 643.113 573 685.902 C 573 726.084, 573.111 728.791, 574.829 730.345 C 576.273 731.652, 578.754 732, 586.638 732 C 600.638 732, 600.419 732.238, 600.832 716.583 C 601.221 701.820, 602.083 700.908, 607.292 709.750 C 614.033 721.192, 620.117 729.992, 621.974 730.986 C 623.016 731.544, 628.623 732, 634.434 732 L 645 732 645 724.884 C 645 717.004, 646.463 719.906, 629.346 693.831 C 625.855 688.513, 622.767 683.556, 622.483 682.816 C 622.196 682.069, 627.104 675.045, 633.525 667.012 L 645.084 652.552 644.792 646.526 L 644.500 640.500 634.047 640.213 C 628.077 640.049, 622.502 640.391, 621.047 641.010 C 619.646 641.607, 614.675 647.200, 610 653.441 L 601.500 664.787 601 653.942 C 600.680 646.990, 600.034 642.631, 599.202 641.798 C 598.355 640.950, 594.367 640.393, 587.702 640.192 C 579.551 639.946, 577.048 640.209, 575.250 641.499 M 723.039 642.189 C 721.054 644.319, 721 645.490, 721 686.632 L 721 728.887 723.223 730.443 C 724.883 731.607, 728.037 732, 735.699 732 C 745.388 732, 746.040 731.869, 747.509 729.627 C 748.865 727.557, 749.028 721.861, 748.782 685.046 C 748.512 644.592, 748.419 642.778, 746.559 641.419 C 745.197 640.423, 741.705 640, 734.848 640 C 726.085 640, 724.868 640.226, 723.039 642.189 M 574.861 764.912 L 572.500 766.824 572.500 807.993 C 572.500 847.591, 572.574 849.216, 574.441 850.581 C 575.805 851.578, 579.299 852, 586.191 852 C 600.118 852, 600 852.158, 600 833.500 L 600 819 610 819 L 620 819 620 833.845 C 620 852.402, 619.710 852, 633.106 852 C 640.040 852, 643.147 851.586, 644.777 850.443 L 647 848.887 647 807.943 C 647 759.022, 648.175 763, 633.723 763 C 619.803 763, 620 762.748, 620 780.557 L 620 795 610 795 L 600 795 600 781.635 C 600 769.628, 599.789 768.002, 597.927 765.635 C 595.953 763.125, 595.412 763, 586.538 763 C 578.854 763, 576.808 763.335, 574.861 764.912 M 725.772 763.998 C 720.895 764.854, 711.280 769.711, 707.155 773.402 C 703.376 776.783, 697.272 788.047, 695.978 794.026 C 695.271 797.292, 694.929 804.675, 695.141 812.080 C 695.490 824.250, 695.609 824.828, 699.309 832.313 C 701.404 836.551, 704.779 841.636, 706.809 843.613 C 720.731 857.170, 745.813 857.282, 759.248 843.847 C 762.040 841.055, 765.474 836.109, 767.307 832.241 C 770.500 825.501, 770.500 825.498, 770.482 809 C 770.465 794.293, 770.221 791.897, 768.236 786.955 C 761.770 770.851, 743.375 760.907, 725.772 763.998 M 726.246 790.250 C 723.021 793.700, 721.678 800.870, 722.209 811.800 C 722.895 825.932, 725.481 830, 733.779 830 C 740.852 830, 743.888 823.770, 743.956 809.116 C 744.030 793.262, 741.334 788, 733.135 788 C 729.461 788, 727.860 788.523, 726.246 790.250" stroke="none" fill="#fc0404" fill-rule="evenodd"/><path d="M 801.825 464.074 C 794.307 464.720, 789.329 467.670, 786.249 473.302 C 784.602 476.314, 784.500 487.070, 784.500 658 C 784.500 834.517, 784.552 839.605, 786.406 843.339 C 787.455 845.451, 790.121 848.376, 792.332 849.839 L 796.352 852.500 845.926 852.804 C 878.608 853.005, 896.732 852.750, 899.115 852.055 C 904.188 850.575, 907.942 847.339, 910.104 842.579 C 911.885 838.657, 911.956 831.585, 911.956 658.500 C 911.956 486.003, 911.880 478.332, 910.120 474.459 C 907.873 469.512, 903.031 465.278, 898.721 464.493 C 894.417 463.708, 810.307 463.345, 801.825 464.074 M 935.546 466.142 C 934.008 467.352, 931.915 470.178, 930.896 472.421 C 929.115 476.343, 929.043 483.461, 929.028 657.500 C 929.016 785.865, 929.330 839.650, 930.109 842.453 C 930.712 844.627, 932.690 847.890, 934.503 849.703 C 937.794 852.994, 937.819 853, 947.823 853 C 957.257 853, 958.036 852.841, 961.059 850.297 C 967.285 845.058, 967 850.134, 967 744.532 L 967 648 995.032 648 C 1017.996 648, 1023.730 647.722, 1026.746 646.462 C 1031.704 644.390, 1033.934 642.258, 1036.119 637.500 C 1037.851 633.728, 1037.957 629.044, 1037.978 555.462 L 1038 477.424 1035.750 473.020 C 1034.513 470.599, 1032.230 467.691, 1030.678 466.559 C 1027.943 464.564, 1026.469 464.491, 983.100 464.221 L 938.344 463.941 935.546 466.142 M 268.888 467.635 C 267.715 469.049, 267.500 498.719, 267.500 659.549 C 267.500 845.224, 267.546 849.841, 269.405 851.895 C 271.171 853.847, 272.344 854, 285.500 854 C 297.977 854, 299.890 853.779, 301.345 852.171 C 302.868 850.489, 303 839.554, 303 715.279 L 303 580.215 337.250 579.553 C 356.087 579.188, 395.575 578.577, 425 578.195 C 485.831 577.405, 480.943 578.150, 490.089 568.269 C 496.780 561.040, 501.227 552.841, 504.062 542.506 C 507.044 531.637, 506.502 515.845, 502.786 505.324 C 497.584 490.595, 486.488 477.719, 472.602 470.296 L 465.500 466.500 367.888 466.231 C 277.658 465.982, 270.172 466.088, 268.888 467.635 M 524.888 467.635 C 523.715 469.049, 523.500 498.719, 523.500 659.549 C 523.500 845.224, 523.546 849.841, 525.405 851.895 C 527.171 853.847, 528.344 854, 541.500 854 C 553.977 854, 555.890 853.779, 557.345 852.171 C 558.868 850.489, 559 839.554, 559 715.279 L 559 580.215 593.250 579.553 C 612.087 579.188, 651.575 578.577, 681 578.195 C 741.831 577.405, 736.943 578.150, 746.089 568.269 C 752.780 561.040, 757.227 552.841, 760.062 542.506 C 763.044 531.637, 762.502 515.845, 758.786 505.324 C 753.584 490.595, 742.488 477.719, 728.602 470.296 L 721.500 466.500 623.888 466.231 C 533.658 465.982, 526.172 466.088, 524.888 467.635 M 818.079 602.250 C 818.122 660.138, 818.334 707.050, 818.548 706.500 C 820.189 702.296, 878 500.484, 878 498.960 C 878 497.057, 877.132 497, 848 497 L 818 497 818.079 602.250 M 967 555.500 L 967 614 985.500 614 L 1004 614 1004 555.500 L 1004 497 985.500 497 L 967 497 967 555.500 M 303 524.500 L 303 542 382.432 542 L 461.864 542 463.829 539.241 C 469.912 530.697, 468.765 517.837, 461.199 509.750 L 458.626 507 380.813 507 L 303 507 303 524.500 M 559 524.500 L 559 542 638.432 542 L 717.864 542 719.829 539.241 C 725.912 530.697, 724.765 517.837, 717.199 509.750 L 714.626 507 636.813 507 L 559 507 559 524.500 M 593.500 593.672 C 585.996 595.323, 581.244 599.929, 579.297 607.438 C 576.903 616.666, 578.152 623.825, 583.149 629.517 C 588.290 635.373, 592.308 636, 624.668 636 L 652.973 636 653.237 743.088 L 653.500 850.177 655.971 852.178 C 658.233 854.009, 659.642 854.150, 672.679 853.839 C 685.523 853.533, 687.064 853.304, 688.426 851.500 C 689.751 849.746, 689.940 836.378, 689.968 742.805 L 690 636.110 719.750 635.805 C 749.402 635.501, 749.515 635.492, 753.987 632.987 C 760.470 629.358, 763.419 623.589, 763.437 614.502 C 763.461 603.083, 758.643 596.309, 748.900 594.063 C 744.615 593.075, 597.890 592.706, 593.500 593.672 M 399.500 600.651 C 377.616 604.179, 354.542 616.400, 341.131 631.565 C 310.067 666.695, 307.946 717.609, 335.997 754.835 C 351.793 775.798, 374.921 788.553, 403.410 792.014 C 414.159 793.319, 427.271 792.016, 439.742 788.402 C 484.430 775.452, 514.166 730.298, 508.077 684.635 C 502.773 644.861, 475.197 613.409, 436.500 602.996 C 428.588 600.868, 406.745 599.483, 399.500 600.651 M 850.072 721.257 C 834.987 773.641, 822.452 817.063, 822.215 817.750 C 821.879 818.731, 827.845 819, 849.893 819 L 878 819 878 722.500 C 878 669.425, 877.888 626.003, 877.750 626.007 C 877.612 626.011, 865.158 668.874, 850.072 721.257 M 402.500 644.020 C 380.556 648.413, 363.009 667.113, 359.825 689.500 C 356.339 714.017, 372.789 739.547, 396.928 747.081 C 409.201 750.911, 424.876 749.609, 436.470 743.796 C 448.416 737.805, 458.190 726.638, 462.796 713.716 C 466.341 703.770, 466.474 689.518, 463.112 680 C 458.630 667.317, 449.572 656.408, 437.914 649.658 C 428.713 644.330, 413.250 641.868, 402.500 644.020 M 337.664 815.207 C 332.102 816.704, 327.497 821.760, 325.995 828.019 C 324.582 833.912, 325.271 842.689, 327.483 846.967 C 329.491 850.851, 334.367 854.730, 338.781 855.956 C 343.877 857.371, 482.123 857.371, 487.219 855.956 C 489.264 855.388, 492.318 853.762, 494.005 852.342 C 498.978 848.158, 500.396 844.452, 500.451 835.500 C 500.511 825.748, 498.048 820.544, 491.632 816.868 L 487.500 814.500 414.500 814.338 C 366.944 814.232, 340.163 814.535, 337.664 815.207" stroke="none" fill="#fcfcfc" fill-rule="evenodd"/></svg>